PathFileType	4	(X/Y/Z)	C:/Users/beibeiliu/ov580/test_trc/User2\sequence.31_training_dense_left.trc
DataRate	CameraRate	NumFrames	NumMarkers	Units	OrigDataRate	OrigDataStartFrame	OrigNumFrames
120	120	15	19	mm	120	1	349
Frame#	Time	ThumbCMC			ThumbMCP			ThumbIP			ThumbTip			IndexMCP			IndexPIP			IndexTip			MiddleMCP			MiddlePIP			MiddleTip			RingMCP			RingPIP			RingTip			PinkyMCP			PinkyPIP			PinkyTip			BackHand1			BackHand2			BackHand3	
		X0	Y0	Z0	X1	Y1	Z1	X2	Y2	Z2	X3	Y3	Z3	X4	Y4	Z4	X5	Y5	Z5	X6	Y6	Z6	X7	Y7	Z7	X8	Y8	Z8	X9	Y9	Z9	X10	Y10	Z10	X11	Y11	Z11	X12	Y12	Z12	X13	Y13	Z13	X14	Y14	Z14	X15	Y15	Z15	X16	Y16	Z16	X17	Y17	Z17	X18	Y18	Z18	
0	0	-141.755	-54.7682	73.082	-127.533	-81.2092	57.0215	-110.336	-104.235	35.6296	-106.094	-124.595	14.6262	-159.943	-41.4416	-7.68604	-152.221	-44.0927	-35.1689	-147.517	-51.0873	-67.8477	-186.935	-42.8374	-17.1531	-189.437	-51.3276	-50.7155	-191.749	-70.6477	-79.0266	-206.619	-65.5307	-14.3009	-204.904	-91.6936	-28.2876	-194.195	-120.21	-8.21691	-227.602	-83.0524	6.26256	-217.445	-111.668	3.81074	-195.805	-122.343	26.7516	-210.252	-35.7799	40.1934	-211.034	-26.4284	78.089	-175.935	-26.0077	56.9735	
1	0.00833333	-145.58	-57.0839	68.8748	-128.544	-82.6832	53.4685	-118.807	-105.798	32.1972	-113.167	-127.375	11.8962	-162.534	-42.8013	-11.5061	-155.557	-46.1429	-41.905	-151.118	-55.949	-70.8971	-188.657	-44.3292	-21.7187	-190.599	-52.0966	-50.5388	-193.569	-73.5365	-80.7658	-213.258	-67.4431	-14.5037	-205.384	-94.7916	-28.5967	-193.364	-124.448	-3.70652	-227.714	-81.9619	7.17799	-215.571	-117.478	5.27554	-198.921	-124.897	28.1896	-214.932	-38.4184	42.1807	-212.557	-27.682	73.3661	-177.497	-28.6703	53.4212	
2	0.0166667	-148.062	-59	68.29	-132.779	-84.0966	53.5213	-118.707	-110.872	27.3733	-119.698	-128.303	12.5948	-158.618	-44.4526	-16.9873	-156.933	-48.7437	-42.3286	-148.314	-58.2048	-68.9169	-192.863	-45.4371	-20.9832	-192.425	-54.884	-54.163	-191.858	-74.9233	-81.6745	-210.214	-66.9638	-15.5774	-206.211	-100.133	-30.0723	-196.803	-125.24	-6.97858	-231.234	-84.2239	2.79502	-218.933	-117.442	2.77549	-201.1	-121.556	27.1456	-217.764	-39.3213	38.9625	-213.889	-30.8722	70.8578	-181.188	-30.2633	53.7976	
3	0.025	-146.441	-61.2322	60.3451	-135.274	-86.8547	47.0856	-123.192	-112.102	25.3903	-122.718	-131.061	9.62605	-162.572	-45.889	-20.1004	-153.037	-50.0689	-48.6524	-154.075	-61.6357	-71.5725	-191.741	-46.4107	-23.1098	-193.438	-57.3847	-59.6331	-194.595	-79.075	-84.8806	-211.122	-68.928	-21.544	-208.682	-99.8219	-34.4981	-197.195	-123.66	-16.2811	-228.634	-83.3264	0.382923	-216.896	-116.276	-3.34281	-201.097	-123.674	23.5803	-217.487	-41.9586	32.8491	-219.484	-32.5148	66.3369	-181.457	-31.2501	47.4121	
4	0.0333333	-151.959	-61.4132	59.5333	-135.052	-89.039	41.0743	-122.899	-114.415	21.9595	-125.138	-134.488	2.21043	-161.036	-45.8909	-20.7779	-155.554	-50.3627	-48.629	-149.458	-63.485	-75.1103	-190.223	-46.4846	-33.2353	-190.558	-60.4693	-65.7025	-191.769	-80.1199	-87.899	-216.439	-71.1075	-24.621	-207.558	-101.517	-39.6672	-198.207	-126.883	-17.149	-233.617	-88.4437	-5.31895	-217.283	-115.69	-8.18981	-201.5	-124.465	19.5944	-219.557	-41.6236	28.8112	-215.158	-32.6454	60.3984	-183.34	-33.2582	43.1911	
5	0.0416667	-152.238	-63.3604	49.4928	-136.82	-89.3263	35.2917	-127.552	-115.472	11.1866	-128.824	-135.699	-6.42855	-160.897	-47.2146	-25.7107	-158.072	-54.7582	-58.895	-150.392	-68.4607	-80.5569	-194.092	-49.2791	-38.4046	-190.793	-60.4683	-69.729	-193.082	-84.9895	-93.566	-217.288	-71.4365	-31.1846	-210.809	-102.044	-46.3484	-200.81	-126.782	-27.9649	-232.229	-87.4316	-12.6731	-219.128	-115.741	-15.9288	-204.129	-124.077	12.5475	-217.117	-42.1477	26.1066	-218.535	-34.9588	56.447	-181.084	-33.7688	38.6128	
6	0.05	-149.961	-64.2603	43.8554	-134.643	-91.2727	27.9025	-128.724	-115.569	8.50923	-131.199	-133.988	-12.4983	-163.648	-49.7215	-37.6009	-154.4	-56.2939	-60.8105	-151.751	-73.9739	-86.1448	-194.066	-51.3838	-45.2227	-189.159	-61.9443	-73.8374	-188.133	-89.3056	-100.589	-211.791	-71.1408	-35.8382	-208.872	-100.369	-53.2771	-194.053	-129.797	-33.2568	-232.865	-90.6503	-19.2369	-216.069	-121.75	-19.7018	-201.88	-126.037	6.93968	-215.912	-46.1614	20.4889	-220.562	-37.2322	51.8377	-184.99	-33.9773	33.745	
7	0.0583333	-149.835	-64.5347	43.1365	-134.645	-92.0504	25.364	-123.97	-117.516	-1.35955	-127.528	-136.306	-20.0034	-161.877	-51.2057	-41.7602	-152.075	-61.8286	-70.3381	-151.312	-79.0837	-90.9535	-191.073	-53.5495	-50.2913	-188.316	-66.1115	-79.7839	-181.283	-96.2311	-104.687	-209.991	-74.4046	-42.7255	-208.457	-104.905	-57.8374	-194.921	-130.714	-39.4071	-230.475	-94.4197	-27.4366	-215.125	-121.87	-27.5408	-198.32	-126.7	3.41927	-220.845	-49.3132	14.7638	-220.287	-40.3922	44.3848	-182.04	-34.8886	27.4469	
8	0.0666667	-149.278	-68.1641	35.8753	-134.873	-94.6776	17.6389	-127.148	-117.824	-4.97689	-130.445	-136.844	-27.9495	-160.959	-53.3412	-44.2317	-152.202	-64.9757	-75.9302	-144.305	-86.6635	-96.7758	-189.441	-55.2135	-51.6659	-188.692	-72.0346	-87.238	-181.948	-99.541	-106.259	-210.039	-78.1484	-49.0215	-205.481	-107.184	-62.5795	-188.339	-132.688	-40.7468	-230.027	-94.0867	-28.8913	-213.569	-123.387	-33.4919	-197.324	-129.757	-3.26991	-216.967	-52.258	8.55585	-220.043	-43.8937	42.8786	-182.772	-39.7424	24.312	
9	0.075	-150.381	-69.5054	33.0821	-129.819	-96.8713	13.7468	-120.526	-119.466	-8.29924	-129.056	-137.402	-28.7224	-158.435	-55.3501	-49.5917	-154.031	-64.9668	-76.4092	-147.094	-87.3257	-99.4529	-186.594	-56.969	-58.3691	-183.177	-72.2198	-89.8688	-179.062	-101.899	-108.25	-205.428	-79.1885	-54.6772	-204.822	-107.925	-67.763	-188.044	-133.222	-45.4574	-224.353	-93.9849	-33.1054	-210.44	-126.971	-36.5108	-194.815	-128.569	-9.27798	-218.806	-54.434	4.79289	-218.925	-46.1198	34.5949	-181.17	-41.0024	21.0692	
10	0.0833333	-146.691	-70.5433	27.3935	-130.46	-96.8391	10.0219	-121.071	-120.502	-14.5997	-125.775	-138.465	-37.3223	-158.974	-56.9177	-54.467	-149.535	-66.7524	-80.2711	-145.852	-91.678	-103.032	-186.103	-58.4898	-63.7406	-182.235	-74.1534	-92.0342	-180.343	-105.793	-110.031	-209.595	-81.7899	-56.1943	-201.505	-109.252	-70.5458	-184.173	-133.943	-45.9327	-222.258	-95.5961	-37.4278	-207.297	-127.462	-40.6607	-192.982	-127.632	-12.3254	-217.111	-55.5252	1.49849	-216.661	-48.912	30.3549	-181.966	-41.855	16.5556	
11	0.0916667	-148.735	-72.1253	27.1344	-126.411	-97.3571	7.83268	-117.52	-119.656	-17.9286	-125.895	-135.902	-39.2679	-155.76	-56.1151	-57.4398	-147.561	-68.1043	-85.0793	-144.737	-89.8055	-102.839	-184.877	-58.7598	-63.7146	-182.759	-77.1649	-96.5312	-175.65	-111.491	-111.967	-206.454	-81.2267	-57.5375	-196.198	-108.455	-72.3659	-184.305	-132.751	-48.276	-217.903	-98.7338	-44.9221	-204.52	-125.397	-44.049	-191.108	-127.085	-11.5039	-215.443	-54.7469	-3.46856	-217.758	-49.2733	29.534	-177.093	-44.0835	12.7615	
12	0.1	-147.285	-71.8202	20.4289	-130.724	-96.9681	3.48972	-116.35	-119.641	-21.7245	-121.643	-135.441	-45.2618	-153.352	-55.4607	-60.4947	-144.334	-67.1995	-86.4222	-142.061	-90.1577	-103.338	-181.603	-58.8469	-67.8985	-180.286	-80.0446	-98.7303	-175.548	-111.619	-109.857	-205.99	-82.3994	-61.6076	-191.445	-111.507	-72.7024	-180.936	-130.644	-45.1454	-220.611	-98.3563	-43.6895	-203.799	-126.258	-45.2712	-187.436	-123.54	-13.013	-209.26	-56.1623	-6.61839	-213.625	-50.195	29.9433	-177.91	-45.0204	13.2665	
13	0.108333	-144.393	-72.7929	22.4497	-124.962	-96.8648	-0.425302	-115.18	-117.554	-27.3797	-122.568	-133.934	-50.2823	-156.868	-55.5448	-59.8263	-146.837	-66.2219	-87.0449	-141.309	-96.1727	-105.53	-182.765	-59.051	-71.7296	-177.732	-81.2188	-99.597	-171.574	-113.932	-107.071	-201.722	-83.3643	-65.216	-193.124	-110.507	-73.5571	-178.97	-127.694	-44.6074	-215.302	-99.4143	-49.5065	-198.634	-127.769	-42.5312	-185.763	-119.707	-15.0307	-209.195	-56.664	-8.32127	-212.595	-49.2621	25.7251	-177.373	-42.6131	13.4261	
14	0.116667	-141.727	-70.3412	19.4464	-124.351	-94.1313	0.237718	-113.368	-115.55	-27.5094	-122.375	-130.531	-50.9963	-156.245	-55.3191	-64.965	-147.883	-68.6897	-89.9772	-141.293	-98.2263	-103.95	-181.563	-59.2805	-70.2797	-176.442	-82.2512	-99.3233	-168.997	-122.635	-101.897	-200.481	-83.2333	-65.9526	-190.33	-112.853	-73.0046	-176.918	-124.217	-43.8126	-217.364	-102.243	-50.4325	-199.153	-127.419	-46.0218	-185.32	-118.43	-12.2989	-213.276	-56.2514	-7.30495	-210.884	-52.122	23.8917	-178.203	-43.23	8.97115	
